<svg xmlns="http://www.w3.org/2000/svg" width="26" height="260"><path d="M12.5 9c-.277 0-.5.223-.5.5V12H9.5c-.277 0-.5.223-.5.5v1c0 .277.223.5.5.5H12v2.5c0 .277.223.5.5.5h1c.277 0 .5-.223.5-.5V14h2.5c.277 0 .5-.223.5-.5v-1c0-.277-.223-.5-.5-.5H14V9.5c0-.277-.223-.5-.5-.5zM9.5 38c-.277 0-.5.223-.5.5v1c0 .277.223.5.5.5h7c.277 0 .5-.223.5-.5v-1c0-.277-.223-.5-.5-.5ZM10 61l-1 1 3 3-3 3 1 1 3-3 3 3 1-1-3-3 3-3-1-1-3 3zM13 84a7 7 0 1 0 0 14 7 7 0 0 0 0-14m-.5 3h1c.277 0 .5.223.5.5v1c0 .277-.223.5-.5.5h-1a.5.5 0 0 1-.5-.5v-1c0-.277.223-.5.5-.5m0 3h1c.277 0 .5.223.5.5v4c0 .277-.223.5-.5.5h-1a.5.5 0 0 1-.5-.5v-4c0-.277.223-.5.5-.5M13 110.969a.56.56 0 0 0-.281.062L6 113v1l6.719 1.938c.088.047.18.062.281.062.1 0 .193-.014.281-.062L20 114v-1l-6.719-1.969a.6.6 0 0 0-.281-.062M6 118l6.719 1.938c.088.047.18.062.281.062.1 0 .193-.014.281-.062L20 118v-2l-6.719 1.938A.57.57 0 0 1 13 118a.57.57 0 0 1-.281-.062L6 116Zm0 4 6.719 1.938c.088.047.18.062.281.062.1 0 .193-.014.281-.062L20 122v-2l-6.719 1.938A.57.57 0 0 1 13 122a.57.57 0 0 1-.281-.062L6 120ZM14.344 137l2.125 2.125-4.25 4.25 1.406 1.406 4.25-4.25L20 142.656V137zM8 138l-1 1v9l1 1h10l1-1v-4l-1-1-1 1v3H9v-7h4l1-1-1-1zM11.5 163a4.5 4.5 0 1 0 2.344 8.344L17.5 175l1.5-1.5-3.656-3.656A4.5 4.5 0 0 0 11.5 163m0 1.5a3 3 0 1 1 0 6 3 3 0 0 1 0-6M7 187l-1 1v12l1 1h6.818v-5h-1.824v-2h1.824v-2.093c0-1.808 1.105-2.793 2.718-2.793.772 0 1.096.058 1.29.084V191h-.779c-.877 0-1.047.417-1.047 1.03V194h2.092l-.272 2H16v5h3l1-1v-12l-1-1zM20 216.126a5.8 5.8 0 0 1-1.65.445 2.84 2.84 0 0 0 1.263-1.564c-.555.324-1.17.56-1.824.686a2.9 2.9 0 0 0-2.097-.893c-1.586 0-2.872 1.266-2.872 2.828q0 .333.075.644a8.2 8.2 0 0 1-5.92-2.954 2.8 2.8 0 0 0-.389 1.421c0 .981.507 1.847 1.278 2.354a2.9 2.9 0 0 1-1.301-.354v.035c0 1.37.99 2.513 2.304 2.773a2.9 2.9 0 0 1-1.297.048 2.87 2.87 0 0 0 2.683 1.964A5.82 5.82 0 0 1 6 224.729 8.2 8.2 0 0 0 10.403 226c5.283 0 8.172-4.309 8.172-8.046 0-.122 0-.244-.01-.366A5.8 5.8 0 0 0 20 216.125M13.5 239a7.5 7.5 0 0 0-3.01 14.37c-.022-.525-.005-1.153.13-1.723l.965-4.087s-.24-.479-.24-1.187c0-1.11.645-1.941 1.447-1.941.682 0 1.012.512 1.012 1.126 0 .686-.438 1.711-.663 2.662-.188.795.4 1.444 1.184 1.444 1.421 0 2.378-1.825 2.378-3.987 0-1.644-1.107-2.875-3.12-2.875-2.276 0-3.693 1.697-3.693 3.592 0 .654.193 1.114.494 1.471.14.164.158.23.108.418-.036.138-.118.47-.153.602-.05.19-.204.258-.375.188-1.048-.428-1.536-1.576-1.536-2.866 0-2.13 1.797-4.685 5.36-4.685 2.864 0 4.748 2.072 4.748 4.297 0 2.942-1.635 5.14-4.047 5.14-.81 0-1.57-.438-1.832-.935 0 0-.435 1.728-.528 2.062-.158.578-.47 1.156-.754 1.606A7.5 7.5 0 1 0 13.5 239"/></svg>